<svg preserveAspectRatio="none" width="100%" height="100%" overflow="visible" style="display: block;" viewBox="0 0 466.986 147.278" fill="none" xmlns="http://www.w3.org/2000/svg">
<path id="Vector 8" d="M21.8209 115L22.2375 114.724L21.8226 114.098L21.4053 114.722L21.8209 115ZM33.4305 132.5L33.0138 132.777L33.5445 133.576L33.8958 132.683L33.4305 132.5ZM59.1894 67.0001L59.6537 66.8148L59.1859 65.6426L58.724 66.8171L59.1894 67.0001ZM75.1526 107L74.6882 107.185L75.1363 108.308L75.6122 107.197L75.1526 107ZM88.2134 76.5001L88.6852 76.3346L88.2597 75.1219L87.7538 76.3033L88.2134 76.5001ZM109.619 137.5L109.147 137.666L109.582 138.907L110.081 137.69L109.619 137.5ZM145.899 49.0001L146.355 48.7963L145.879 47.7298L145.436 48.8105L145.899 49.0001ZM169.118 101L168.662 101.204L169.178 102.36L169.591 101.163L169.118 101ZM197.779 18.0001L198.268 17.8965L197.895 16.1337L197.307 17.8369L197.779 18.0001ZM219.185 119L218.695 119.104L218.97 120.4L219.62 119.245L219.185 119ZM249.297 65.5001L249.765 65.3234L249.386 64.3221L248.861 65.2549L249.297 65.5001ZM276.507 137.5L276.039 137.677L276.546 139.018L276.983 137.652L276.507 137.5ZM306.257 44.5001L306.733 44.3481L306.257 42.8576L305.781 44.3478L306.257 44.5001ZM378.454 119L378.026 119.258L378.604 120.219L378.932 119.146L378.454 119ZM465.264 0.31286C465.161 0.0568187 464.87 -0.0668996 464.614 0.0365279L460.441 1.72198C460.185 1.8254 460.061 2.11681 460.165 2.37285C460.268 2.62889 460.56 2.75261 460.816 2.64919L464.525 1.15101L466.023 4.85985C466.126 5.11589 466.418 5.23961 466.674 5.13618C466.93 5.03275 467.053 4.74134 466.95 4.4853L465.264 0.31286ZM341.449 57.5001L341.877 57.2423L341.417 56.4773L341.005 57.2696L341.449 57.5001ZM322.22 94.5001L321.744 94.6522L322.109 95.7974L322.664 94.7307L322.22 94.5001ZM402.762 39.5001L403.226 39.3135L402.698 38.0007L402.284 39.3539L402.762 39.5001ZM424.893 94.5001L424.429 94.6868L424.88 95.8088L425.353 94.6955L424.893 94.5001ZM0.415594 147L0.831187 147.278L22.2364 115.278L21.8209 115L21.4053 114.722L0 146.722L0.415594 147ZM21.8209 115L21.4042 115.277L33.0138 132.777L33.4305 132.5L33.8471 132.224L22.2375 114.724L21.8209 115ZM33.4305 132.5L33.8958 132.683L59.6547 67.1831L59.1894 67.0001L58.724 66.8171L32.9652 132.317L33.4305 132.5ZM59.1894 67.0001L58.725 67.1855L74.6882 107.185L75.1526 107L75.617 106.815L59.6537 66.8148L59.1894 67.0001ZM75.1526 107L75.6122 107.197L88.6731 76.697L88.2134 76.5001L87.7538 76.3033L74.693 106.803L75.1526 107ZM88.2134 76.5001L87.7416 76.6657L109.147 137.666L109.619 137.5L110.09 137.335L88.6852 76.3346L88.2134 76.5001ZM109.619 137.5L110.081 137.69L146.361 49.1898L145.899 49.0001L145.436 48.8105L109.156 137.31L109.619 137.5ZM145.899 49.0001L145.442 49.204L168.662 101.204L169.118 101L169.575 100.796L146.355 48.7963L145.899 49.0001ZM169.118 101L169.591 101.163L198.252 18.1633L197.779 18.0001L197.307 17.8369L168.645 100.837L169.118 101ZM197.779 18.0001L197.29 18.1038L218.695 119.104L219.185 119L219.674 118.896L198.268 17.8965L197.779 18.0001ZM219.185 119L219.62 119.245L249.733 65.7454L249.297 65.5001L248.861 65.2549L218.749 118.755L219.185 119ZM249.297 65.5001L248.829 65.6769L276.039 137.677L276.507 137.5L276.975 137.323L249.765 65.3234L249.297 65.5001ZM276.507 137.5L276.983 137.652L306.733 44.6525L306.257 44.5001L305.781 44.3478L276.031 137.348L276.507 137.5ZM341.449 57.5001L341.02 57.7579L378.026 119.258L378.454 119L378.883 118.742L341.877 57.2423L341.449 57.5001ZM306.257 44.5001L305.781 44.6522L321.744 94.6522L322.22 94.5001L322.696 94.3481L306.733 44.3481L306.257 44.5001ZM322.22 94.5001L322.664 94.7307L341.892 57.7307L341.449 57.5001L341.005 57.2696L321.776 94.2696L322.22 94.5001ZM378.454 119L378.932 119.146L403.24 39.6463L402.762 39.5001L402.284 39.3539L377.976 118.854L378.454 119ZM402.762 39.5001L402.298 39.6868L424.429 94.6868L424.893 94.5001L425.357 94.3135L403.226 39.3135L402.762 39.5001ZM424.893 94.5001L425.353 94.6955L465.261 0.695529L464.801 0.500132L464.341 0.304736L424.433 94.3047L424.893 94.5001Z" fill="var(--stroke-0, #837CFE)"/>
</svg>
