<svg preserveAspectRatio="none" width="100%" height="100%" overflow="visible" style="display: block;" viewBox="0 0 224.257 94.3238" fill="none" xmlns="http://www.w3.org/2000/svg">
<path id="Vector 1" d="M64.2572 57.8951L64.5398 57.4825L64.2835 57.307L64.0126 57.459L64.2572 57.8951ZM100.757 82.8951L100.475 83.3076L100.753 83.4979L101.033 83.3119L100.757 82.8951ZM224.247 1.4945C224.302 1.22387 224.127 0.959966 223.857 0.905047L219.447 0.0100861C219.176 -0.0448332 218.912 0.130032 218.857 0.400658C218.802 0.671284 218.977 0.935191 219.248 0.99011L223.168 1.78563L222.372 5.70573C222.317 5.97635 222.492 6.24026 222.763 6.29518C223.033 6.3501 223.297 6.17523 223.352 5.90461L224.247 1.4945ZM0.257248 93.8951L0.514496 94.3238C2.50617 93.1288 43.9944 69.8354 64.5019 58.3311L64.2572 57.8951L64.0126 57.459C43.5201 68.9548 2.00833 92.2613 0 93.4663L0.257248 93.8951ZM64.2572 57.8951L63.9747 58.3076L100.475 83.3076L100.757 82.8951L101.04 82.4825L64.5398 57.4825L64.2572 57.8951ZM100.757 82.8951L101.033 83.3119L224.033 1.81186L223.757 1.39506L223.481 0.978253L100.481 82.4782L100.757 82.8951Z" fill="var(--stroke-0, #837CFE)"/>
</svg>
